<?xml version="1.0" encoding="UTF-8"?>
<svg id="Laag_1" xmlns="http://www.w3.org/2000/svg" version="1.1" viewBox="0 0 1366 768" fill="#00e5ff">
  <!-- Generator: Adobe Illustrator 29.8.3, SVG Export Plug-In . SVG Version: 2.1.1 Build 3)  -->
  <path d="M1344.6,188.08v35.74h-279.21l-88.59,312.62h-47.03l-43.93-181.42c-10.86-44.45-18.09-78.56-22.75-113.71h-1.03c-6.2,34.63-13.95,68.75-26.88,113.71l-49.62,181.42h-47.03l-88.38-348.36h47.55l41.35,176.25c10.33,43.41,19.64,86.83,25.84,120.43h1.03c5.69-34.63,16.54-75.98,28.43-120.95l46.52-175.73h47.03l42.39,176.76c9.82,41.35,19.12,82.7,24.29,119.4h1.03c7.24-38.25,17.06-77.01,27.91-120.43l46-175.73h315.08Z"/>
  <path d="M721.09,536.44h-47.55l-41.35-176.25c-10.33-43.41-19.64-86.83-25.84-120.43h-1.03c-5.69,34.63-16.54,75.98-28.43,120.95l-46.52,175.73h-47.03l-42.39-176.76c-9.82-41.35-19.12-82.7-24.29-119.4h-1.03c-7.24,38.25-17.06,77.01-27.91,120.43l-44.48,169.92-1.52,5.81H28.16v-35.74h277.69l88.59-312.62h47.03l43.93,181.42c10.86,44.45,18.09,78.56,22.75,113.71h1.03c6.2-34.63,13.95-68.75,26.88-113.71l49.62-181.42h47.03l88.38,348.36Z"/>
  <polygon points="343.24 530.63 343.24 536.44 341.72 536.44 343.24 530.63"/>
</svg>